---
title: 邓丽君2005-《灿丽的邓丽君·纪念版》xrcd引进版WAV+CUE
date: 2023-10-28 10:24:14
categories: WAV车载音乐、镜像
tags: 华语中文
---
# 邓丽君2005-《灿丽的邓丽君·纪念版》xrcd[引进版][WAV+CUE]

PERFORMER "邓丽君"
TITLE "灿丽的邓丽君·纪念版 [引进版]"
FILE "邓丽君.-.[灿丽的邓丽君·纪念版](2005)[WAV].wav" WAVE
TRACK 01 AUDIO
TITLE "独上西楼"
PERFORMER "邓丽君"
FLAGS DCP
INDEX 00 00:00:00
INDEX 01 00:00:01
TRACK 02 AUDIO
TITLE "千言万语"
PERFORMER "邓丽君"
FLAGS DCP
INDEX 01 02:46:18
TRACK 03 AUDIO
TITLE "在水一方"
PERFORMER "邓丽君"
FLAGS DCP
INDEX 01 06:18:74
TRACK 04 AUDIO
TITLE "恰是你的温柔"
PERFORMER "邓丽君"
FLAGS DCP
INDEX 01 10:05:59
TRACK 05 AUDIO
TITLE "山茶花"
PERFORMER "邓丽君"
FLAGS DCP
INDEX 01 14:31:54
TRACK 06 AUDIO
TITLE "夜来香"
PERFORMER "邓丽君"
FLAGS DCP
INDEX 01 18:33:47
TRACK 07 AUDIO
TITLE "一片落叶"
PERFORMER "邓丽君"
FLAGS DCP
INDEX 01 21:50:50
TRACK 08 AUDIO
TITLE "难忘初恋情人"
PERFORMER "邓丽君"
FLAGS DCP
INDEX 01 25:21:24
TRACK 09 AUDIO
TITLE "四个愿望"
PERFORMER "邓丽君"
FLAGS DCP
INDEX 01 28:41:64
TRACK 10 AUDIO
TITLE "忘记他"
PERFORMER "邓丽君"
FLAGS DCP
INDEX 01 32:05:01
TRACK 11 AUDIO
TITLE "心事知多少"
PERFORMER "邓丽君"
FLAGS DCP
INDEX 01 35:02:48
TRACK 12 AUDIO
TITLE "让心儿圈起你"
PERFORMER "邓丽君"
FLAGS DCP
INDEX 01 37:50:54
TRACK 13 AUDIO
TITLE "爱的箴言"
PERFORMER "邓丽君"
FLAGS DCP
INDEX 01 41:35:65
TRACK 14 AUDIO
TITLE "奈何"
PERFORMER "邓丽君"
FLAGS DCP
INDEX 01 45:36:68
TRACK 15 AUDIO
TITLE "新月泪痕"
PERFORMER "邓丽君"
FLAGS DCP
INDEX 01 48:20:58
TRACK 16 AUDIO
TITLE "香港之夜"
PERFORMER "邓丽君"
FLAGS DCP
INDEX 01 51:17:05
TRACK 17 AUDIO
TITLE "何日君再来"
PERFORMER "邓丽君"
FLAGS DCP
INDEX 01 54:56:47
TRACK 18 AUDIO
TITLE "泪的小雨"
PERFORMER "邓丽君"
FLAGS DCP
INDEX 01 57:51:53
邓丽君2005-《灿丽的邓丽君·纪念版》xrcd[引进版][WAV+CUE].rar: https://url27.ctfile.com/f/9388027-964236690-051e10?p=559675
(访问密码: 559675)
邓丽君: https://url27.ctfile.com/d/9388027-25163978-5f4765?p=559675
(访问密码: 559675)
邓紫棋: https://url27.ctfile.com/d/9388027-35132595-8004c3?p=559675
(访问密码: 559675)
邓妙华: https://url27.ctfile.com/d/9388027-43821454-4222c1?p=559675
(访问密码: 559675)
邓瑞霞: https://url27.ctfile.com/d/9388027-43985262-aad7d1?p=559675
(访问密码: 559675)
邓福如: https://url27.ctfile.com/d/9388027-44218995-1a5a31?p=559675
(访问密码: 559675)
邓丽欣: https://url27.ctfile.com/d/9388027-44249997-9d683e?p=559675
(访问密码: 559675)
邓旭方: https://url27.ctfile.com/d/9388027-55679711-7e27e0?p=559675
(访问密码: 559675)
原文：[链接](https://blog.sina.com.cn/s/blog_1647c7e76010313nl.html)